# xmcd
#
# Track frame offsets:
#	150
#	16922
#	34734
#	50568
#	68426
#	86363
#	102645
#	119620
#	139449
#	159460
#	178262
#	198005
#
# Disc length: 2929 seconds
#
# Revision: 1
# Processed by: cddbd v1.5.2PL0 Copyright (c) Steve Scherf et al.
# Submitted via: audiograbber 1.83.01
#
DISCID=a20b6f0c
DTITLE=Tamara Stewart - Love - Laughter - Lessons
DYEAR=2008
DGENRE=Country
TTITLE0=Grow
TTITLE1=1989
TTITLE2=Bigger Dreams
TTITLE3=Groundhog Day
TTITLE4=One Day
TTITLE5=Lessons
TTITLE6=Drive
TTITLE7=Both Sides Now
TTITLE8=Summer's Love
TTITLE9=Factory Man
TTITLE10=Company Of Strangers
TTITLE11=St Christopher and Me
EXTD=
EXTT0=
EXTT1=
EXTT2=
EXTT3=
EXTT4=
EXTT5=
EXTT6=
EXTT7=
EXTT8=
EXTT9=
EXTT10=
EXTT11=
PLAYORDER=
